<svg width="1280" height="720" xmlns="http://www.w3.org/2000/svg" xmlns:xlink="http://www.w3.org/1999/xlink" overflow="hidden"><g><rect x="0" y="0" width="1280" height="720" fill="#FFFFFF"/><path d="M570.5 97.6678C570.5 61.1243 600.124 31.5001 636.668 31.5001L901.332 31.5001C937.876 31.5001 967.5 61.1243 967.5 97.6678L967.5 623.332C967.5 659.876 937.876 689.5 901.332 689.5L636.668 689.5C600.124 689.5 570.5 659.876 570.5 623.332Z" stroke="#000000" stroke-width="1.33333" stroke-miterlimit="8" fill="#E8E8E8" fill-rule="evenodd"/><path d="M61.5001 94.3337C61.5001 88.9027 65.9027 84.5001 71.3336 84.5001L271.666 84.5001C277.097 84.5001 281.5 88.9027 281.5 94.3337L281.5 133.666C281.5 139.097 277.097 143.5 271.666 143.5L71.3336 143.5C65.9027 143.5 61.5001 139.097 61.5001 133.666Z" stroke="#000000" stroke-width="1.33333" stroke-miterlimit="8" fill="#A3D9A5" fill-rule="evenodd" fill-opacity="0.439216"/><text font-family="Times New Roman,Times New Roman_MSFontService,sans-serif" font-weight="400" font-size="24" transform="translate(114.842 122)">In</text><text font-family="Times New Roman,Times New Roman_MSFontService,sans-serif" font-weight="400" font-size="24" transform="translate(134.842 122)">-</text><text font-family="Times New Roman,Times New Roman_MSFontService,sans-serif" font-weight="400" font-size="24" transform="translate(142.842 122)">the</text><text font-family="Times New Roman,Times New Roman_MSFontService,sans-serif" font-weight="400" font-size="24" transform="translate(172.175 122)">-</text><text font-family="Times New Roman,Times New Roman_MSFontService,sans-serif" font-weight="400" font-size="24" transform="translate(180.175 122)">Wild</text><path d="M61.5001 178.334C61.5001 172.903 65.9027 168.5 71.3336 168.5L271.666 168.5C277.097 168.5 281.5 172.903 281.5 178.334L281.5 217.666C281.5 223.097 277.097 227.5 271.666 227.5L71.3336 227.5C65.9027 227.5 61.5001 223.097 61.5001 217.666Z" stroke="#000000" stroke-width="1.33333" stroke-miterlimit="8" fill="#D8BFD8" fill-rule="evenodd" fill-opacity="0.439216"/><text font-family="Times New Roman,Times New Roman_MSFontService,sans-serif" font-weight="400" font-size="24" transform="translate(118.029 206)">ADD 2022</text><path d="M61.5001 262.334C61.5001 256.903 65.9027 252.5 71.3336 252.5L271.666 252.5C277.097 252.5 281.5 256.903 281.5 262.334L281.5 301.666C281.5 307.097 277.097 311.5 271.666 311.5L71.3336 311.5C65.9027 311.5 61.5001 307.097 61.5001 301.666Z" stroke="#000000" stroke-width="1.33333" stroke-miterlimit="8" fill="#F9E79F" fill-rule="evenodd"/><text font-family="Times New Roman,Times New Roman_MSFontService,sans-serif" font-weight="400" font-size="24" transform="translate(96.3621 290)">ASVspoof2015</text><path d="M61.5001 341.167C61.5001 335.828 65.8281 331.5 71.1669 331.5L271.833 331.5C277.172 331.5 281.5 335.828 281.5 341.167L281.5 379.833C281.5 385.172 277.172 389.5 271.833 389.5L71.1669 389.5C65.8281 389.5 61.5001 385.172 61.5001 379.833Z" stroke="#000000" stroke-width="1.33333" stroke-miterlimit="8" fill="#FF7F50" fill-rule="evenodd"/><text font-family="Times New Roman,Times New Roman_MSFontService,sans-serif" font-weight="400" font-size="24" transform="translate(80.3621 369)">ASVspoof2019LA</text><path d="M61.5001 419.334C61.5001 413.903 65.9027 409.5 71.3336 409.5L271.666 409.5C277.097 409.5 281.5 413.903 281.5 419.334L281.5 458.666C281.5 464.097 277.097 468.5 271.666 468.5L71.3336 468.5C65.9027 468.5 61.5001 464.097 61.5001 458.666Z" stroke="#000000" stroke-width="1.33333" stroke-miterlimit="8" fill="#FFA07A" fill-rule="evenodd"/><text font-family="Times New Roman,Times New Roman_MSFontService,sans-serif" font-weight="400" font-size="24" transform="translate(80.3622 447)">ASVspoof2021LA</text><path d="M61.5001 500.167C61.5001 494.828 65.8281 490.5 71.1669 490.5L271.833 490.5C277.172 490.5 281.5 494.828 281.5 500.167L281.5 538.833C281.5 544.172 277.172 548.5 271.833 548.5L71.1669 548.5C65.8281 548.5 61.5001 544.172 61.5001 538.833Z" stroke="#000000" stroke-width="1.33333" stroke-miterlimit="8" fill="#7FFFD4" fill-rule="evenodd"/><text font-family="Times New Roman,Times New Roman_MSFontService,sans-serif" font-weight="400" font-size="24" transform="translate(150.362 528)">FoR</text><path d="M61.5001 578.167C61.5001 572.828 65.8281 568.5 71.1669 568.5L271.833 568.5C277.172 568.5 281.5 572.828 281.5 578.167L281.5 616.833C281.5 622.172 277.172 626.5 271.833 626.5L71.1669 626.5C65.8281 626.5 61.5001 622.172 61.5001 616.833Z" stroke="#000000" stroke-width="1.33333" stroke-miterlimit="8" fill="#D5DBDB" fill-rule="evenodd"/><text font-family="Times New Roman,Times New Roman_MSFontService,sans-serif" font-weight="400" font-size="24" transform="translate(145.028 606)">HAD</text><path d="M61.5001 16.3337C61.5001 10.9027 65.9027 6.50005 71.3336 6.50005L271.666 6.50005C277.097 6.50005 281.5 10.9027 281.5 16.3337L281.5 55.6664C281.5 61.0974 277.097 65.5 271.666 65.5L71.3336 65.5C65.9027 65.5 61.5001 61.0974 61.5001 55.6664Z" stroke="#000000" stroke-width="1.33333" stroke-miterlimit="8" fill="#A7C7E7" fill-rule="evenodd" fill-opacity="0.439216"/><text font-family="Times New Roman,Times New Roman_MSFontService,sans-serif" font-weight="400" font-size="24" transform="translate(118.362 44)">FMFCC</text><text font-family="Times New Roman,Times New Roman_MSFontService,sans-serif" font-weight="400" font-size="24" transform="translate(198.362 44)">-</text><text font-family="Times New Roman,Times New Roman_MSFontService,sans-serif" font-weight="400" font-size="24" transform="translate(206.362 44)">A</text><path d="M384.5 290.167C384.5 284.828 388.828 280.5 394.167 280.5L528.833 280.5C534.172 280.5 538.5 284.828 538.5 290.167L538.5 328.833C538.5 334.172 534.172 338.5 528.833 338.5L394.167 338.5C388.828 338.5 384.5 334.172 384.5 328.833Z" stroke="#000000" stroke-width="1.33333" stroke-miterlimit="8" fill="#96DCF8" fill-rule="evenodd"/><text font-family="Times New Roman,Times New Roman_MSFontService,sans-serif" font-weight="400" font-size="24" transform="translate(426.41 318)">XLS</text><text font-family="Times New Roman,Times New Roman_MSFontService,sans-serif" font-weight="400" font-size="24" transform="translate(471.744 318)">-</text><text font-family="Times New Roman,Times New Roman_MSFontService,sans-serif" font-weight="400" font-size="24" transform="translate(479.744 318)">R</text><path d="M384.5 389.334C384.5 383.903 388.903 379.5 394.334 379.5L528.667 379.5C534.097 379.5 538.5 383.903 538.5 389.334L538.5 428.667C538.5 434.097 534.097 438.5 528.667 438.5L394.334 438.5C388.903 438.5 384.5 434.097 384.5 428.667Z" stroke="#000000" stroke-width="1.33333" stroke-miterlimit="8" fill="#156082" fill-rule="evenodd" fill-opacity="0.439216"/><text font-family="Times New Roman,Times New Roman_MSFontService,sans-serif" font-weight="400" font-size="24" transform="translate(415.077 403)">Incoming</text><text font-family="Times New Roman,Times New Roman_MSFontService,sans-serif" font-weight="400" font-size="24" transform="translate(425.077 432)">Feature</text><path d="M61.5001 656.334C61.5001 650.903 65.9027 646.5 71.3336 646.5L271.666 646.5C277.097 646.5 281.5 650.903 281.5 656.334L281.5 695.666C281.5 701.097 277.097 705.5 271.666 705.5L71.3336 705.5C65.9027 705.5 61.5001 701.097 61.5001 695.666Z" stroke="#000000" stroke-width="1.33333" stroke-miterlimit="8" fill="#156082" fill-rule="evenodd" fill-opacity="0.439216"/><text font-family="Times New Roman,Times New Roman_MSFontService,sans-serif" font-weight="400" font-size="24" transform="translate(99.7485 684)">Incoming Task</text><path d="M617.5 161.334C617.5 155.903 621.903 151.5 627.333 151.5L744.667 151.5C750.097 151.5 754.5 155.903 754.5 161.334L754.5 200.667C754.5 206.097 750.097 210.5 744.667 210.5L627.333 210.5C621.903 210.5 617.5 206.097 617.5 200.667Z" stroke="#000000" stroke-width="1.33333" stroke-miterlimit="8" fill="#82E0AA" fill-rule="evenodd" fill-opacity="0.439216"/><text font-family="Times New Roman,Times New Roman_MSFontService,sans-serif" font-weight="400" font-size="24" transform="translate(662.771 189)">LwF</text><path d="M616.5 249.334C616.5 243.903 620.903 239.5 626.333 239.5L743.667 239.5C749.097 239.5 753.5 243.903 753.5 249.334L753.5 288.667C753.5 294.097 749.097 298.5 743.667 298.5L626.333 298.5C620.903 298.5 616.5 294.097 616.5 288.667Z" stroke="#000000" stroke-width="1.33333" stroke-miterlimit="8" fill="#BB8FCE" fill-rule="evenodd" fill-opacity="0.439216"/><text font-family="Times New Roman,Times New Roman_MSFontService,sans-serif" font-weight="400" font-size="24" transform="translate(638.25 277)">(A) GEM</text><path d="M617.5 340.167C617.5 334.828 621.828 330.5 627.167 330.5L744.833 330.5C750.172 330.5 754.5 334.828 754.5 340.167L754.5 378.833C754.5 384.172 750.172 388.5 744.833 388.5L627.167 388.5C621.828 388.5 617.5 384.172 617.5 378.833Z" stroke="#000000" stroke-width="1.33333" stroke-miterlimit="8" fill="#F5CBA7" fill-rule="evenodd" fill-opacity="0.439216"/><text font-family="Times New Roman,Times New Roman_MSFontService,sans-serif" font-weight="400" font-size="24" transform="translate(654.771 368)">OWM</text><path d="M617.5 427.334C617.5 421.903 621.903 417.5 627.334 417.5L746.667 417.5C752.097 417.5 756.5 421.903 756.5 427.334L756.5 466.667C756.5 472.097 752.097 476.5 746.667 476.5L627.334 476.5C621.903 476.5 617.5 472.097 617.5 466.667Z" stroke="#000000" stroke-width="1.33333" stroke-miterlimit="8" fill="#85C1E9" fill-rule="evenodd" fill-opacity="0.439216"/><text font-family="Times New Roman,Times New Roman_MSFontService,sans-serif" font-weight="400" font-size="24" transform="translate(648.586 455)">RAWM</text><path d="M615.5 514.334C615.5 508.903 619.903 504.5 625.334 504.5L744.667 504.5C750.097 504.5 754.5 508.903 754.5 514.334L754.5 553.667C754.5 559.097 750.097 563.5 744.667 563.5L625.334 563.5C619.903 563.5 615.5 559.097 615.5 553.667Z" stroke="#000000" stroke-width="1.33333" stroke-miterlimit="8" fill="#F9E79F" fill-rule="evenodd" fill-opacity="0.439216"/><text font-family="Times New Roman,Times New Roman_MSFontService,sans-serif" font-weight="400" font-size="24" transform="translate(655.246 542)">RWM</text><path d="M614.5 603.333C614.5 597.903 618.903 593.5 624.333 593.5L745.667 593.5C751.097 593.5 755.5 597.903 755.5 603.333L755.5 642.667C755.5 648.097 751.097 652.5 745.667 652.5L624.333 652.5C618.903 652.5 614.5 648.097 614.5 642.667Z" stroke="#000000" stroke-width="1.33333" stroke-miterlimit="8" fill="#F1948A" fill-rule="evenodd" fill-opacity="0.439216"/><text font-family="Times New Roman,Times New Roman_MSFontService,sans-serif" font-weight="400" font-size="24" transform="translate(673.916 631)">SI</text><path d="M797.5 427.167C797.5 421.828 801.828 417.5 807.167 417.5L929.833 417.5C935.172 417.5 939.5 421.828 939.5 427.167L939.5 465.833C939.5 471.172 935.172 475.5 929.833 475.5L807.167 475.5C801.828 475.5 797.5 471.172 797.5 465.833Z" stroke="#000000" stroke-width="1.33333" stroke-miterlimit="8" fill="#CACFD2" fill-rule="evenodd" fill-opacity="0.439216"/><text font-family="Times New Roman,Times New Roman_MSFontService,sans-serif" font-weight="400" font-size="24" transform="translate(841.294 455)">EWC</text><path d="M617.5 79.1669C617.5 73.8281 621.828 69.5001 627.167 69.5001L744.833 69.5001C750.172 69.5001 754.5 73.8281 754.5 79.1669L754.5 117.833C754.5 123.172 750.172 127.5 744.833 127.5L627.167 127.5C621.828 127.5 617.5 123.172 617.5 117.833Z" stroke="#000000" stroke-width="1.33333" stroke-miterlimit="8" fill="#FAD7A0" fill-rule="evenodd" fill-opacity="0.439216"/><text font-family="Times New Roman,Times New Roman_MSFontService,sans-serif" font-weight="400" font-size="24" transform="translate(643.438 107)">Finetune</text><path d="M794.5 514.334C794.5 508.903 798.903 504.5 804.333 504.5L936.667 504.5C942.097 504.5 946.5 508.903 946.5 514.334L946.5 553.667C946.5 559.097 942.097 563.5 936.667 563.5L804.333 563.5C798.903 563.5 794.5 559.097 794.5 553.667Z" stroke="#000000" stroke-width="1.33333" stroke-miterlimit="8" fill="#156082" fill-rule="evenodd" fill-opacity="0.439216"/><text font-family="Times New Roman,Times New Roman_MSFontService,sans-serif" font-weight="400" font-size="24" transform="translate(823.669 527)">Incoming</text><text font-family="Times New Roman,Times New Roman_MSFontService,sans-serif" font-weight="400" font-size="24" transform="translate(814.449 556)">CL Method</text><path d="M799.5 80.3335C799.5 74.9026 803.903 70.5001 809.333 70.5001L930.667 70.5001C936.097 70.5001 940.5 74.9026 940.5 80.3335L940.5 119.667C940.5 125.097 936.097 129.5 930.667 129.5L809.333 129.5C803.903 129.5 799.5 125.097 799.5 119.667Z" stroke="#000000" stroke-width="1.33333" stroke-miterlimit="8" fill="#F5B7B1" fill-rule="evenodd" fill-opacity="0.439216"/><text font-family="Times New Roman,Times New Roman_MSFontService,sans-serif" font-weight="400" font-size="24" transform="translate(831.003 108)">GDumb</text><path d="M799.5 164.167C799.5 158.828 803.828 154.5 809.167 154.5L930.833 154.5C936.172 154.5 940.5 158.828 940.5 164.167L940.5 202.833C940.5 208.172 936.172 212.5 930.833 212.5L809.167 212.5C803.828 212.5 799.5 208.172 799.5 202.833Z" stroke="#000000" stroke-width="1.33333" stroke-miterlimit="8" fill="#F7DC6F" fill-rule="evenodd" fill-opacity="0.439216"/><text font-family="Times New Roman,Times New Roman_MSFontService,sans-serif" font-weight="400" font-size="24" transform="translate(835.669 192)">Replay</text><path d="M797.5 249.334C797.5 243.903 801.903 239.5 807.334 239.5L929.667 239.5C935.097 239.5 939.5 243.903 939.5 249.334L939.5 288.667C939.5 294.097 935.097 298.5 929.667 298.5L807.334 298.5C801.903 298.5 797.5 294.097 797.5 288.667Z" stroke="#000000" stroke-width="1.33333" stroke-miterlimit="8" fill="#76D7C4" fill-rule="evenodd" fill-opacity="0.439216"/><text font-family="Times New Roman,Times New Roman_MSFontService,sans-serif" font-weight="400" font-size="24" transform="translate(833.96 277)">ELMA</text><path d="M797.5 339.334C797.5 333.903 801.903 329.5 807.334 329.5L925.667 329.5C931.097 329.5 935.5 333.903 935.5 339.334L935.5 378.667C935.5 384.097 931.097 388.5 925.667 388.5L807.334 388.5C801.903 388.5 797.5 384.097 797.5 378.667Z" stroke="#000000" stroke-width="1.33333" stroke-miterlimit="8" fill="#D7BDE2" fill-rule="evenodd" fill-opacity="0.439216"/><text font-family="Times New Roman,Times New Roman_MSFontService,sans-serif" font-weight="400" font-size="24" transform="translate(836.918 353)">(Bias)</text><text font-family="Times New Roman,Times New Roman_MSFontService,sans-serif" font-weight="400" font-size="24" transform="translate(819.584 382)">Reservoir</text><path d="M1010.5 290.167C1010.5 284.828 1014.83 280.5 1020.17 280.5L1153.83 280.5C1159.17 280.5 1163.5 284.828 1163.5 290.167L1163.5 328.833C1163.5 334.172 1159.17 338.5 1153.83 338.5L1020.17 338.5C1014.83 338.5 1010.5 334.172 1010.5 328.833Z" stroke="#000000" stroke-width="1.33333" stroke-miterlimit="8" fill="#D1D1D1" fill-rule="evenodd"/><text font-family="Times New Roman,Times New Roman_MSFontService,sans-serif" font-weight="400" font-size="24" transform="translate(1061.7 318)">MLP</text><path d="M1010.5 389.334C1010.5 383.903 1014.9 379.5 1020.33 379.5L1153.67 379.5C1159.1 379.5 1163.5 383.903 1163.5 389.334L1163.5 428.666C1163.5 434.097 1159.1 438.5 1153.67 438.5L1020.33 438.5C1014.9 438.5 1010.5 434.097 1010.5 428.666Z" stroke="#000000" stroke-width="1.33333" stroke-miterlimit="8" fill="#156082" fill-rule="evenodd" fill-opacity="0.439216"/><text font-family="Times New Roman,Times New Roman_MSFontService,sans-serif" font-weight="400" font-size="24" transform="translate(1040.37 403)">Incoming</text><text font-family="Times New Roman,Times New Roman_MSFontService,sans-serif" font-weight="400" font-size="24" transform="translate(1040.37 432)">Classifier</text><path d="M282.748 35.0312 384.241 305.217 381.744 306.155 280.252 35.9689ZM384.474 292.827 384.286 309.13 373.41 296.983C372.919 296.434 372.966 295.591 373.514 295.1 374.063 294.609 374.906 294.655 375.397 295.204L383.986 304.797 381.659 305.671 381.808 292.796C381.816 292.06 382.42 291.47 383.156 291.478 383.893 291.487 384.483 292.091 384.474 292.827Z"/><path d="M282.68 113.879 383.753 306.04 381.393 307.282 280.32 115.121ZM382.442 293.717 384.286 309.916 371.982 299.219C371.426 298.735 371.367 297.893 371.851 297.338 372.334 296.782 373.176 296.723 373.732 297.206L383.448 305.654 381.248 306.811 379.792 294.018C379.709 293.287 380.235 292.626 380.966 292.543 381.698 292.46 382.359 292.985 382.442 293.717Z"/><path d="M282.48 197.596 382.77 306.27 380.811 308.079 280.52 199.404ZM378.323 294.703 384.285 309.878 369.637 302.718C368.976 302.395 368.701 301.597 369.025 300.935 369.348 300.273 370.146 299.999 370.808 300.323L382.376 305.976 380.549 307.662 375.841 295.678C375.571 294.993 375.909 294.219 376.594 293.95 377.279 293.68 378.053 294.018 378.323 294.703Z"/><path d="M281.843 281.212 381.072 307.605 380.387 310.182 281.157 283.789ZM371.119 300.223 384.285 309.839 368.081 311.644C367.349 311.726 366.69 311.199 366.608 310.467 366.527 309.735 367.054 309.076 367.786 308.994L380.582 307.569 379.943 309.971 369.546 302.376C368.951 301.942 368.821 301.108 369.256 300.513 369.69 299.918 370.524 299.788 371.119 300.223Z"/><path d="M0.591451-1.19497 100.079 48.0464 98.8963 50.4364-0.591451 1.19497ZM91.7875 38.8366 102.785 50.8732 86.5448 49.4288C85.8113 49.3636 85.2696 48.7161 85.3349 47.9826 85.4001 47.2491 86.0476 46.7074 86.7811 46.7726L99.6059 47.9133 98.5034 50.1407 89.8188 40.6353C89.3221 40.0916 89.3601 39.2483 89.9038 38.7516 90.4474 38.2549 91.2908 38.2929 91.7875 38.8366Z" transform="matrix(1 0 0 -1 281.5 360.374)"/><path d="M1.04306-0.83054 101.537 125.378 99.4507 127.039-1.04306 0.83054ZM97.9426 113.518 102.785 129.086 88.6968 120.88C88.0605 120.509 87.8452 119.693 88.2158 119.057 88.5865 118.42 89.4028 118.205 90.0391 118.576L101.165 125.056 99.2204 126.604 95.3962 114.31C95.1775 113.607 95.5703 112.86 96.2734 112.641 96.9766 112.422 97.7239 112.815 97.9426 113.518Z" transform="matrix(1 0 0 -1 281.5 438.587)"/><path d="M1.19734-0.586645 102.364 205.895 99.9696 207.068-1.19734 0.586645ZM101.407 193.539 102.786 209.785 90.7933 198.739C90.2517 198.241 90.217 197.397 90.7159 196.855 91.2148 196.314 92.0583 196.279 92.5999 196.778L102.07 205.501 99.8385 206.594 98.7494 193.765C98.6871 193.031 99.2315 192.386 99.9652 192.324 100.699 192.261 101.344 192.806 101.407 193.539Z" transform="matrix(1 0 0 -1 281.5 519.286)"/><path d="M1.25575-0.448175 102.805 284.086 100.294 284.982-1.25575 0.448175ZM103.244 271.701 102.786 287.999 92.1127 275.674C91.6306 275.117 91.6911 274.275 92.2477 273.793 92.8044 273.311 93.6465 273.371 94.1285 273.928L102.557 283.661 100.216 284.496 100.578 271.626C100.599 270.89 101.212 270.31 101.948 270.331 102.684 270.351 103.264 270.965 103.244 271.701Z" transform="matrix(1 0 0 -1 281.5 597.5)"/><path d="M4.35736e-06-1.33333 28.4456-1.33324 28.4456 1.33343-4.35736e-06 1.33333ZM16.9288-5.90928 32.1243 0.000105018 16.9288 5.90939C16.2425 6.17629 15.4698 5.83629 15.2029 5.14998 14.936 4.46367 15.276 3.69094 15.9623 3.42405L27.9623-1.24258 27.9623 1.24276 15.9623-3.42394C15.276-3.69084 14.936-4.46357 15.2029-5.14988 15.4698-5.83619 16.2425-6.17618 16.9288-5.90928Z" transform="matrix(1 0 0 -1 538.5 309.5)"/><path d="M966.5 308.167 1006.53 308.167 1006.53 310.833 966.5 310.833ZM995.016 303.591 1010.21 309.5 995.016 315.409C994.33 315.676 993.557 315.336 993.29 314.65 993.023 313.964 993.363 313.191 994.05 312.924L1006.05 308.257 1006.05 310.743 994.05 306.076C993.363 305.809 993.023 305.036 993.29 304.35 993.557 303.664 994.33 303.324 995.016 303.591Z"/></g></svg>